<svg viewBox="0 0 24 24" xmlns="http://www.w3.org/2000/svg"><path d="M22.51 13.76a3 3 0 010-3.52l.76-1.05a1 1 0 00.14-.9 1.018 1.018 0 00-.64-.64l-1.23-.4a2.987 2.987 0 01-2.07-2.85V3.1a1 1 0 00-1.31-.95l-1.24.4a3 3 0 01-3.35-1.09L12.81.41a1.036 1.036 0 00-1.62 0l-.76 1.05a3 3 0 01-3.35 1.09l-1.24-.4a1 1 0 00-1.31.95v1.3a2.987 2.987 0 01-2.07 2.85l-1.23.4a1.018 1.018 0 00-.64.64 1 1 0 00.14.9l.76 1.05a3 3 0 010 3.52l-.76 1.05a1 1 0 00-.14.9 1.018 1.018 0 00.64.64l1.23.4a2.987 2.987 0 012.07 2.85v1.3a1 1 0 001.31.95l1.23-.4a2.994 2.994 0 013.36 1.09l.76 1.05a1.005 1.005 0 001.62 0l.76-1.05a3 3 0 013.36-1.09l1.23.4a1 1 0 001.31-.95v-1.3a2.987 2.987 0 012.07-2.85l1.23-.4a1.018 1.018 0 00.64-.64 1 1 0 00-.14-.9zm-5.8-3.053l-5 5a1 1 0 01-1.414 0l-3-3a1 1 0 111.414-1.414L11 13.586l4.293-4.293a1 1 0 011.414 1.414z" data-name="21. Verified"/></svg>