<svg width="771" height="521" fill="none" xmlns="http://www.w3.org/2000/svg"><g clip-path="url(#clip0_1_38)" fill="#000"><path d="M121.178 1.972C66.53 1.012 21.291 44.69 20.33 99.337c-.961 54.646 42.717 99.887 97.363 100.848 54.647.96 99.887-42.718 100.848-97.365.961-54.646-42.716-99.887-97.363-100.848zm-2.758 156.854c-31.842-.56-57.292-26.921-56.733-58.763.56-31.843 26.922-57.293 58.764-56.733 31.842.56 57.292 26.921 56.733 58.763-.56 31.842-26.922 57.293-58.764 56.733zm-2.758 156.855c-54.646-.961-99.887 42.716-100.848 97.364-.96 54.647 42.717 99.887 97.364 100.848 54.646.961 99.887-42.717 100.848-97.363.96-54.648-42.717-99.889-97.364-100.849zm-2.757 156.854c-31.843-.559-57.293-26.921-56.733-58.763.56-31.842 26.921-57.293 58.763-56.734 31.842.56 57.293 26.923 56.733 58.765-.56 31.842-26.921 57.292-58.763 56.732z"/><path d="M501.226 40.863c-7.934-8.217-21.027-8.447-29.245-.514L155.95 345.46c-8.218 7.933-8.448 21.026-.514 29.244a20.616 20.616 0 0014.516 6.314 20.613 20.613 0 0014.729-5.8l316.032-305.11c8.215-7.934 8.446-21.027.513-29.245zm-7.367 418.266L351.83 312.281c-7.941-8.212-21.035-8.43-29.244-.488-8.212 7.94-8.43 21.035-.488 29.243l142.029 146.849a20.619 20.619 0 0014.504 6.301 20.62 20.62 0 0014.741-5.812c8.211-7.942 8.429-21.035.487-29.245z"/><path d="M288.411 246.325L188.762 143.11c-7.932-8.218-21.026-8.448-29.244-.514s-8.448 21.027-.514 29.244l99.65 103.216a20.616 20.616 0 0014.516 6.314 20.613 20.613 0 0014.729-5.8c8.215-7.934 8.445-21.028.512-29.245z"/></g><path d="M396.483 293c-1.466 0-2.7-.5-3.7-1.5s-1.5-2.233-1.5-3.7v-67.7c0-1.533.5-2.767 1.5-3.7 1-1 2.234-1.5 3.7-1.5h23.9c4.534 0 8.5.9 11.9 2.7 3.467 1.733 6.167 4.167 8.1 7.3 2 3.133 3 6.733 3 10.8 0 3.267-.9 6.233-2.7 8.9-1.733 2.6-4.133 4.667-7.2 6.2 4.4 1.067 7.934 3.167 10.6 6.3 2.667 3.133 4 7.233 4 12.3 0 4.6-1.1 8.667-3.3 12.2-2.133 3.533-5.133 6.333-9 8.4-3.866 2-8.3 3-13.3 3h-26zm5.2-9.6h20.8c3.067 0 5.767-.533 8.1-1.6 2.334-1.067 4.167-2.633 5.5-4.7 1.334-2.067 2-4.633 2-7.7 0-2.867-.666-5.233-2-7.1-1.333-1.867-3.166-3.267-5.5-4.2-2.333-1-5.033-1.5-8.1-1.5h-20.8v26.8zm0-36.4h18.7c3.8 0 6.9-.933 9.3-2.8 2.467-1.867 3.7-4.7 3.7-8.5s-1.233-6.6-3.7-8.4c-2.4-1.867-5.5-2.8-9.3-2.8h-18.7V247zm83.666 46.4c-4.867 0-9.234-1.2-13.1-3.6-3.867-2.467-6.934-5.767-9.2-9.9-2.2-4.2-3.3-8.933-3.3-14.2 0-5.267 1.2-10 3.6-14.2 2.466-4.2 5.766-7.5 9.9-9.9 4.2-2.467 8.9-3.7 14.1-3.7 5.2 0 9.866 1.233 14 3.7 4.133 2.4 7.4 5.7 9.8 9.9 2.466 4.2 3.7 8.933 3.7 14.2h-3.9c0 5.267-1.134 10-3.4 14.2-2.2 4.133-5.234 7.433-9.1 9.9-3.867 2.4-8.234 3.6-13.1 3.6zm2-9c3.4 0 6.433-.8 9.1-2.4 2.666-1.667 4.766-3.9 6.3-6.7 1.533-2.867 2.3-6.067 2.3-9.6 0-3.6-.767-6.8-2.3-9.6-1.534-2.867-3.634-5.1-6.3-6.7-2.667-1.667-5.7-2.5-9.1-2.5-3.334 0-6.367.833-9.1 2.5-2.667 1.6-4.8 3.833-6.4 6.7-1.534 2.8-2.3 6-2.3 9.6 0 3.533.766 6.733 2.3 9.6 1.6 2.8 3.733 5.033 6.4 6.7 2.733 1.6 5.766 2.4 9.1 2.4zm22.4 8.7c-1.467 0-2.7-.467-3.7-1.4-.934-1-1.4-2.233-1.4-3.7v-15.3l1.9-10.6 8.3 3.6V288c0 1.467-.5 2.7-1.5 3.7-.934.933-2.134 1.4-3.6 1.4zm25.18-34.3c0-4 .967-7.567 2.9-10.7 2-3.2 4.667-5.733 8-7.6 3.334-1.867 7-2.8 11-2.8s6.967.667 8.9 2c2 1.267 2.767 2.8 2.3 4.6-.2.933-.6 1.667-1.2 2.2a3.87 3.87 0 01-1.9.9c-.733.133-1.533.1-2.4-.1-4.266-.867-8.1-.933-11.5-.2-3.4.733-6.1 2.1-8.1 4.1-1.933 2-2.9 4.533-2.9 7.6h-5.1zm.1 34.2c-1.6 0-2.833-.4-3.7-1.2-.866-.867-1.3-2.133-1.3-3.8v-44.7c0-1.6.434-2.833 1.3-3.7.867-.867 2.1-1.3 3.7-1.3 1.667 0 2.9.433 3.7 1.3.867.8 1.3 2.033 1.3 3.7V288c0 1.6-.433 2.833-1.3 3.7-.8.867-2.033 1.3-3.7 1.3zm71.133.4c-5.2 0-9.867-1.2-14-3.6-4.133-2.467-7.4-5.8-9.8-10-2.4-4.2-3.633-8.933-3.7-14.2V220c0-1.533.467-2.767 1.4-3.7 1-.933 2.233-1.4 3.7-1.4 1.533 0 2.767.467 3.7 1.4.933.933 1.4 2.167 1.4 3.7v27c2.333-2.8 5.133-5 8.4-6.6 3.333-1.667 6.967-2.5 10.9-2.5 4.867 0 9.233 1.233 13.1 3.7 3.867 2.4 6.9 5.7 9.1 9.9 2.267 4.133 3.4 8.833 3.4 14.1 0 5.267-1.233 10-3.7 14.2-2.4 4.2-5.667 7.533-9.8 10-4.133 2.4-8.833 3.6-14.1 3.6zm0-9c3.4 0 6.433-.8 9.1-2.4 2.667-1.667 4.767-3.933 6.3-6.8 1.6-2.867 2.4-6.067 2.4-9.6 0-3.6-.8-6.8-2.4-9.6-1.533-2.8-3.633-5-6.3-6.6-2.667-1.667-5.7-2.5-9.1-2.5-3.333 0-6.367.833-9.1 2.5-2.667 1.6-4.767 3.8-6.3 6.6-1.533 2.8-2.3 6-2.3 9.6 0 3.533.767 6.733 2.3 9.6s3.633 5.133 6.3 6.8c2.733 1.6 5.767 2.4 9.1 2.4zm68.513 9c-5.534 0-10.467-1.167-14.8-3.5-4.267-2.4-7.634-5.667-10.1-9.8-2.4-4.2-3.6-9-3.6-14.4 0-5.467 1.133-10.267 3.4-14.4 2.333-4.2 5.533-7.467 9.6-9.8 4.066-2.4 8.733-3.6 14-3.6 5.2 0 9.666 1.167 13.4 3.5 3.733 2.267 6.566 5.433 8.5 9.5 2 4 3 8.633 3 13.9 0 1.267-.434 2.333-1.3 3.2-.867.8-1.967 1.2-3.3 1.2h-40.3v-8h40l-4.1 2.8c-.067-3.333-.734-6.3-2-8.9-1.267-2.667-3.067-4.767-5.4-6.3-2.334-1.533-5.167-2.3-8.5-2.3-3.8 0-7.067.833-9.8 2.5-2.667 1.667-4.7 3.967-6.1 6.9-1.4 2.867-2.1 6.133-2.1 9.8 0 3.667.833 6.933 2.5 9.8 1.666 2.867 3.966 5.133 6.9 6.8 2.933 1.667 6.3 2.5 10.1 2.5 2.066 0 4.166-.367 6.3-1.1 2.2-.8 3.966-1.7 5.3-2.7 1-.733 2.066-1.1 3.2-1.1 1.2-.067 2.233.267 3.1 1 1.133 1 1.733 2.1 1.8 3.3.066 1.2-.467 2.233-1.6 3.1-2.267 1.8-5.1 3.267-8.5 4.4-3.334 1.133-6.534 1.7-9.6 1.7zm41.309-34.6c0-4 .967-7.567 2.9-10.7 2-3.2 4.667-5.733 8-7.6s7-2.8 11-2.8 6.967.667 8.9 2c2 1.267 2.767 2.8 2.3 4.6-.2.933-.6 1.667-1.2 2.2a3.874 3.874 0 01-1.9.9c-.733.133-1.533.1-2.4-.1-4.267-.867-8.1-.933-11.5-.2-3.4.733-6.1 2.1-8.1 4.1-1.933 2-2.9 4.533-2.9 7.6h-5.1zm.1 34.2c-1.6 0-2.833-.4-3.7-1.2-.867-.867-1.3-2.133-1.3-3.8v-44.7c0-1.6.433-2.833 1.3-3.7s2.1-1.3 3.7-1.3c1.667 0 2.9.433 3.7 1.3.867.8 1.3 2.033 1.3 3.7V288c0 1.6-.433 2.833-1.3 3.7-.8.867-2.033 1.3-3.7 1.3z" fill="#000"/><defs><clipPath id="clip0_1_38"><path fill="#fff" transform="rotate(1.007 4.5 511.958)" d="M0 0h512v512H0z"/></clipPath></defs></svg>