<svg width="771" height="521" viewBox="0 0 771 521" fill="none" xmlns="http://www.w3.org/2000/svg">
<g clip-path="url(#clip0_1_38)">
<path d="M121.178 1.97223C66.5303 1.01146 21.2905 44.69 20.3298 99.3365C19.369 153.983 63.0465 199.224 117.693 200.185C172.34 201.145 217.58 157.467 218.541 102.82C219.502 48.1738 175.825 2.933 121.178 1.97223ZM118.42 158.826C86.5781 158.266 61.1276 131.905 61.6874 100.063C62.2472 68.2205 88.6087 42.77 120.451 43.3298C152.293 43.8897 177.743 70.2511 177.184 102.093C176.624 133.935 150.262 159.386 118.42 158.826Z" fill="black"/>
<path d="M115.662 315.681C61.0159 314.72 15.7751 358.397 14.8144 413.045C13.8536 467.692 57.5311 512.932 112.178 513.893C166.824 514.854 212.065 471.176 213.026 416.53C213.986 361.882 170.309 316.641 115.662 315.681ZM112.905 472.535C81.0617 471.976 55.6122 445.614 56.172 413.772C56.7318 381.93 83.0933 356.479 114.935 357.038C146.777 357.598 172.228 383.961 171.668 415.803C171.108 447.645 144.747 473.095 112.905 472.535Z" fill="black"/>
<path d="M501.226 40.8629C493.292 32.6462 480.199 32.416 471.981 40.3487L155.95 345.46C147.732 353.393 147.502 366.486 155.436 374.704C159.402 378.813 164.66 380.925 169.952 381.018C175.244 381.111 180.573 379.186 184.681 375.218L500.713 70.1074C508.928 62.1736 509.159 49.0806 501.226 40.8629Z" fill="black"/>
<path d="M493.859 459.129L351.83 312.281C343.889 304.069 330.795 303.851 322.586 311.793C314.374 319.733 314.156 332.828 322.098 341.036L464.127 487.885C468.094 491.986 473.344 494.093 478.631 494.186C483.928 494.279 489.263 492.348 493.372 488.374C501.583 480.432 501.801 467.339 493.859 459.129Z" fill="black"/>
<path d="M288.411 246.325L188.762 143.11C180.83 134.892 167.736 134.662 159.518 142.596C151.3 150.53 151.07 163.623 159.004 171.84L258.654 275.056C262.62 279.165 267.878 281.277 273.17 281.37C278.462 281.463 283.791 279.538 287.899 275.57C296.114 267.636 296.344 254.542 288.411 246.325Z" fill="black"/>
</g>
<path d="M396.483 293C395.017 293 393.783 292.5 392.783 291.5C391.783 290.5 391.283 289.267 391.283 287.8L391.283 220.1C391.283 218.567 391.783 217.333 392.783 216.4C393.783 215.4 395.017 214.9 396.483 214.9L420.383 214.9C424.917 214.9 428.883 215.8 432.283 217.6C435.75 219.333 438.45 221.767 440.383 224.9C442.383 228.033 443.383 231.633 443.383 235.7C443.383 238.967 442.483 241.933 440.683 244.6C438.95 247.2 436.55 249.267 433.483 250.8C437.883 251.867 441.417 253.967 444.083 257.1C446.75 260.233 448.083 264.333 448.083 269.4C448.083 274 446.983 278.067 444.783 281.6C442.65 285.133 439.65 287.933 435.783 290C431.917 292 427.483 293 422.483 293L396.483 293ZM401.683 283.4L422.483 283.4C425.55 283.4 428.25 282.867 430.583 281.8C432.917 280.733 434.75 279.167 436.083 277.1C437.417 275.033 438.083 272.467 438.083 269.4C438.083 266.533 437.417 264.167 436.083 262.3C434.75 260.433 432.917 259.033 430.583 258.1C428.25 257.1 425.55 256.6 422.483 256.6L401.683 256.6L401.683 283.4ZM401.683 247L420.383 247C424.183 247 427.283 246.067 429.683 244.2C432.15 242.333 433.383 239.5 433.383 235.7C433.383 231.9 432.15 229.1 429.683 227.3C427.283 225.433 424.183 224.5 420.383 224.5L401.683 224.5L401.683 247ZM485.349 293.4C480.482 293.4 476.115 292.2 472.249 289.8C468.382 287.333 465.315 284.033 463.049 279.9C460.849 275.7 459.749 270.967 459.749 265.7C459.749 260.433 460.949 255.7 463.349 251.5C465.815 247.3 469.115 244 473.249 241.6C477.449 239.133 482.149 237.9 487.349 237.9C492.549 237.9 497.215 239.133 501.349 241.6C505.482 244 508.749 247.3 511.149 251.5C513.615 255.7 514.849 260.433 514.849 265.7L510.949 265.7C510.949 270.967 509.815 275.7 507.549 279.9C505.349 284.033 502.315 287.333 498.449 289.8C494.582 292.2 490.215 293.4 485.349 293.4ZM487.349 284.4C490.749 284.4 493.782 283.6 496.449 282C499.115 280.333 501.215 278.1 502.749 275.3C504.282 272.433 505.049 269.233 505.049 265.7C505.049 262.1 504.282 258.9 502.749 256.1C501.215 253.233 499.115 251 496.449 249.4C493.782 247.733 490.749 246.9 487.349 246.9C484.015 246.9 480.982 247.733 478.249 249.4C475.582 251 473.449 253.233 471.849 256.1C470.315 258.9 469.549 262.1 469.549 265.7C469.549 269.233 470.315 272.433 471.849 275.3C473.449 278.1 475.582 280.333 478.249 282C480.982 283.6 484.015 284.4 487.349 284.4ZM509.749 293.1C508.282 293.1 507.049 292.633 506.049 291.7C505.115 290.7 504.649 289.467 504.649 288L504.649 272.7L506.549 262.1L514.849 265.7L514.849 288C514.849 289.467 514.349 290.7 513.349 291.7C512.415 292.633 511.215 293.1 509.749 293.1ZM534.929 258.8C534.929 254.8 535.896 251.233 537.829 248.1C539.829 244.9 542.496 242.367 545.829 240.5C549.163 238.633 552.829 237.7 556.829 237.7C560.829 237.7 563.796 238.367 565.729 239.7C567.729 240.967 568.496 242.5 568.029 244.3C567.829 245.233 567.429 245.967 566.829 246.5C566.296 246.967 565.663 247.267 564.929 247.4C564.196 247.533 563.396 247.5 562.529 247.3C558.263 246.433 554.429 246.367 551.029 247.1C547.629 247.833 544.929 249.2 542.929 251.2C540.996 253.2 540.029 255.733 540.029 258.8L534.929 258.8ZM535.029 293C533.429 293 532.196 292.6 531.329 291.8C530.463 290.933 530.029 289.667 530.029 288L530.029 243.3C530.029 241.7 530.463 240.467 531.329 239.6C532.196 238.733 533.429 238.3 535.029 238.3C536.696 238.3 537.929 238.733 538.729 239.6C539.596 240.4 540.029 241.633 540.029 243.3L540.029 288C540.029 289.6 539.596 290.833 538.729 291.7C537.929 292.567 536.696 293 535.029 293ZM606.162 293.4C600.962 293.4 596.295 292.2 592.162 289.8C588.029 287.333 584.762 284 582.362 279.8C579.962 275.6 578.729 270.867 578.662 265.6L578.662 220C578.662 218.467 579.129 217.233 580.062 216.3C581.062 215.367 582.295 214.9 583.762 214.9C585.295 214.9 586.529 215.367 587.462 216.3C588.395 217.233 588.862 218.467 588.862 220L588.862 247C591.195 244.2 593.995 242 597.262 240.4C600.595 238.733 604.229 237.9 608.162 237.9C613.029 237.9 617.395 239.133 621.262 241.6C625.129 244 628.162 247.3 630.362 251.5C632.629 255.633 633.762 260.333 633.762 265.6C633.762 270.867 632.529 275.6 630.062 279.8C627.662 284 624.395 287.333 620.262 289.8C616.129 292.2 611.429 293.4 606.162 293.4ZM606.162 284.4C609.562 284.4 612.595 283.6 615.262 282C617.929 280.333 620.029 278.067 621.562 275.2C623.162 272.333 623.962 269.133 623.962 265.6C623.962 262 623.162 258.8 621.562 256C620.029 253.2 617.929 251 615.262 249.4C612.595 247.733 609.562 246.9 606.162 246.9C602.829 246.9 599.795 247.733 597.062 249.4C594.395 251 592.295 253.2 590.762 256C589.229 258.8 588.462 262 588.462 265.6C588.462 269.133 589.229 272.333 590.762 275.2C592.295 278.067 594.395 280.333 597.062 282C599.795 283.6 602.829 284.4 606.162 284.4ZM674.675 293.4C669.141 293.4 664.208 292.233 659.875 289.9C655.608 287.5 652.241 284.233 649.775 280.1C647.375 275.9 646.175 271.1 646.175 265.7C646.175 260.233 647.308 255.433 649.575 251.3C651.908 247.1 655.108 243.833 659.175 241.5C663.241 239.1 667.908 237.9 673.175 237.9C678.375 237.9 682.841 239.067 686.575 241.4C690.308 243.667 693.141 246.833 695.075 250.9C697.075 254.9 698.075 259.533 698.075 264.8C698.075 266.067 697.641 267.133 696.775 268C695.908 268.8 694.808 269.2 693.475 269.2L653.175 269.2L653.175 261.2L693.175 261.2L689.075 264C689.008 260.667 688.341 257.7 687.075 255.1C685.808 252.433 684.008 250.333 681.675 248.8C679.341 247.267 676.508 246.5 673.175 246.5C669.375 246.5 666.108 247.333 663.375 249C660.708 250.667 658.675 252.967 657.275 255.9C655.875 258.767 655.175 262.033 655.175 265.7C655.175 269.367 656.008 272.633 657.675 275.5C659.341 278.367 661.641 280.633 664.575 282.3C667.508 283.967 670.875 284.8 674.675 284.8C676.741 284.8 678.841 284.433 680.975 283.7C683.175 282.9 684.941 282 686.275 281C687.275 280.267 688.341 279.9 689.475 279.9C690.675 279.833 691.708 280.167 692.575 280.9C693.708 281.9 694.308 283 694.375 284.2C694.441 285.4 693.908 286.433 692.775 287.3C690.508 289.1 687.675 290.567 684.275 291.7C680.941 292.833 677.741 293.4 674.675 293.4ZM715.984 258.8C715.984 254.8 716.951 251.233 718.884 248.1C720.884 244.9 723.551 242.367 726.884 240.5C730.217 238.633 733.884 237.7 737.884 237.7C741.884 237.7 744.851 238.367 746.784 239.7C748.784 240.967 749.551 242.5 749.084 244.3C748.884 245.233 748.484 245.967 747.884 246.5C747.351 246.967 746.717 247.267 745.984 247.4C745.251 247.533 744.451 247.5 743.584 247.3C739.317 246.433 735.484 246.367 732.084 247.1C728.684 247.833 725.984 249.2 723.984 251.2C722.051 253.2 721.084 255.733 721.084 258.8L715.984 258.8ZM716.084 293C714.484 293 713.251 292.6 712.384 291.8C711.517 290.933 711.084 289.667 711.084 288L711.084 243.3C711.084 241.7 711.517 240.467 712.384 239.6C713.251 238.733 714.484 238.3 716.084 238.3C717.751 238.3 718.984 238.733 719.784 239.6C720.651 240.4 721.084 241.633 721.084 243.3L721.084 288C721.084 289.6 720.651 290.833 719.784 291.7C718.984 292.567 717.751 293 716.084 293Z" fill="black"/>
<defs>
<clipPath id="clip0_1_38">
<rect width="512" height="512" fill="white" transform="translate(9.00018) rotate(1.00723)"/>
</clipPath>
</defs>
</svg>
